<?xml version="1.0" standalone="no"?><!-- Generator: Gravit.io --><svg xmlns="http://www.w3.org/2000/svg" xmlns:xlink="http://www.w3.org/1999/xlink" style="isolation:isolate" viewBox="0 0 64 64" width="64" height="64"><defs><clipPath id="_clipPath_zCqpdla2haPQifeluWtNN0JrT1zQJ7ca"><rect width="64" height="64"/></clipPath></defs><g clip-path="url(#_clipPath_zCqpdla2haPQifeluWtNN0JrT1zQJ7ca)"><rect x="0" y="0" width="64" height="64" transform="matrix(1,0,0,1,0,0)" fill="none"/><g><mask id="_mask_SDCcwb66DFc7TNAXd2aRqhW46jZKisRW" x="-200%" y="-200%" width="400%" height="400%"><rect x="-200%" y="-200%" width="400%" height="400%" style="fill:white;"/><path d=" M 13.2 37.23 C 12.556 37.23 11.975 37.071 11.457 36.754 C 10.939 36.437 10.531 35.977 10.232 35.375 C 9.933 34.773 9.784 34.061 9.784 33.24 C 9.784 31.821 10.087 30.508 10.694 29.299 C 11.301 28.09 12.197 27.12 13.382 26.387 C 14.567 25.654 15.991 25.288 17.652 25.288 C 18.081 25.288 18.541 25.321 19.031 25.386 C 19.521 25.451 19.967 25.549 20.368 25.68 C 20.629 25.755 20.76 25.941 20.76 26.24 C 20.76 26.483 20.669 26.711 20.487 26.926 C 20.305 27.141 20.093 27.248 19.85 27.248 C 19.775 27.248 19.719 27.243 19.682 27.234 C 19.197 27.122 18.781 27.04 18.436 26.989 C 18.091 26.938 17.727 26.912 17.344 26.912 C 16.159 26.912 15.151 27.199 14.32 27.773 C 13.489 28.347 12.869 29.105 12.458 30.048 C 12.047 30.991 11.842 32.008 11.842 33.1 C 11.842 33.893 11.998 34.507 12.311 34.941 C 12.624 35.375 13.032 35.592 13.536 35.592 C 14.105 35.592 14.605 35.359 15.034 34.892 C 15.463 34.425 15.855 33.669 16.21 32.624 C 16.565 31.579 16.915 30.16 17.26 28.368 C 17.316 28.107 17.428 27.929 17.596 27.836 C 17.764 27.743 17.988 27.696 18.268 27.696 C 18.931 27.696 19.262 27.911 19.262 28.34 C 19.262 28.415 19.248 28.508 19.22 28.62 C 18.977 29.525 18.756 30.526 18.555 31.623 C 18.354 32.72 18.254 33.553 18.254 34.122 C 18.254 34.626 18.329 34.992 18.478 35.221 C 18.627 35.45 18.856 35.564 19.164 35.564 C 19.463 35.564 19.747 35.464 20.018 35.263 C 20.289 35.062 20.629 34.719 21.04 34.234 C 21.152 34.103 21.278 34.038 21.418 34.038 C 21.539 34.038 21.635 34.094 21.705 34.206 C 21.775 34.318 21.81 34.472 21.81 34.668 C 21.81 35.032 21.721 35.321 21.544 35.536 C 21.087 36.087 20.639 36.507 20.2 36.796 C 19.761 37.085 19.225 37.23 18.59 37.23 C 17.937 37.23 17.409 37.041 17.008 36.663 C 16.607 36.285 16.355 35.751 16.252 35.06 C 15.561 36.507 14.544 37.23 13.2 37.23 Z " fill="black" stroke="none"/></mask><path d=" M 13.2 37.23 C 12.556 37.23 11.975 37.071 11.457 36.754 C 10.939 36.437 10.531 35.977 10.232 35.375 C 9.933 34.773 9.784 34.061 9.784 33.24 C 9.784 31.821 10.087 30.508 10.694 29.299 C 11.301 28.09 12.197 27.12 13.382 26.387 C 14.567 25.654 15.991 25.288 17.652 25.288 C 18.081 25.288 18.541 25.321 19.031 25.386 C 19.521 25.451 19.967 25.549 20.368 25.68 C 20.629 25.755 20.76 25.941 20.76 26.24 C 20.76 26.483 20.669 26.711 20.487 26.926 C 20.305 27.141 20.093 27.248 19.85 27.248 C 19.775 27.248 19.719 27.243 19.682 27.234 C 19.197 27.122 18.781 27.04 18.436 26.989 C 18.091 26.938 17.727 26.912 17.344 26.912 C 16.159 26.912 15.151 27.199 14.32 27.773 C 13.489 28.347 12.869 29.105 12.458 30.048 C 12.047 30.991 11.842 32.008 11.842 33.1 C 11.842 33.893 11.998 34.507 12.311 34.941 C 12.624 35.375 13.032 35.592 13.536 35.592 C 14.105 35.592 14.605 35.359 15.034 34.892 C 15.463 34.425 15.855 33.669 16.21 32.624 C 16.565 31.579 16.915 30.16 17.26 28.368 C 17.316 28.107 17.428 27.929 17.596 27.836 C 17.764 27.743 17.988 27.696 18.268 27.696 C 18.931 27.696 19.262 27.911 19.262 28.34 C 19.262 28.415 19.248 28.508 19.22 28.62 C 18.977 29.525 18.756 30.526 18.555 31.623 C 18.354 32.72 18.254 33.553 18.254 34.122 C 18.254 34.626 18.329 34.992 18.478 35.221 C 18.627 35.45 18.856 35.564 19.164 35.564 C 19.463 35.564 19.747 35.464 20.018 35.263 C 20.289 35.062 20.629 34.719 21.04 34.234 C 21.152 34.103 21.278 34.038 21.418 34.038 C 21.539 34.038 21.635 34.094 21.705 34.206 C 21.775 34.318 21.81 34.472 21.81 34.668 C 21.81 35.032 21.721 35.321 21.544 35.536 C 21.087 36.087 20.639 36.507 20.2 36.796 C 19.761 37.085 19.225 37.23 18.59 37.23 C 17.937 37.23 17.409 37.041 17.008 36.663 C 16.607 36.285 16.355 35.751 16.252 35.06 C 15.561 36.507 14.544 37.23 13.2 37.23 Z " fill="rgb(255,255,255)" mask="url(#_mask_SDCcwb66DFc7TNAXd2aRqhW46jZKisRW)" vector-effect="non-scaling-stroke" stroke-width="2" stroke="rgb(255,255,255)" stroke-linejoin="round" stroke-linecap="butt" stroke-miterlimit="1.41421"/><mask id="_mask_TmXHQwtEP3q4KFj8ZoAAiA3RcLY1r9ks" x="-200%" y="-200%" width="400%" height="400%"><rect x="-200%" y="-200%" width="400%" height="400%" style="fill:white;"/><path d=" M 24.162 37.23 C 23.751 37.23 23.441 37.118 23.231 36.894 C 23.021 36.67 22.916 36.376 22.916 36.012 C 22.916 35.592 23.035 35.256 23.273 35.004 C 23.511 34.752 23.845 34.626 24.274 34.626 C 24.685 34.626 24.995 34.726 25.205 34.927 C 25.415 35.128 25.52 35.424 25.52 35.816 C 25.52 36.245 25.399 36.588 25.156 36.845 C 24.913 37.102 24.582 37.23 24.162 37.23 Z " fill="black" stroke="none"/></mask><path d=" M 24.162 37.23 C 23.751 37.23 23.441 37.118 23.231 36.894 C 23.021 36.67 22.916 36.376 22.916 36.012 C 22.916 35.592 23.035 35.256 23.273 35.004 C 23.511 34.752 23.845 34.626 24.274 34.626 C 24.685 34.626 24.995 34.726 25.205 34.927 C 25.415 35.128 25.52 35.424 25.52 35.816 C 25.52 36.245 25.399 36.588 25.156 36.845 C 24.913 37.102 24.582 37.23 24.162 37.23 Z " fill="rgb(255,255,255)" mask="url(#_mask_TmXHQwtEP3q4KFj8ZoAAiA3RcLY1r9ks)" vector-effect="non-scaling-stroke" stroke-width="2" stroke="rgb(255,255,255)" stroke-linejoin="round" stroke-linecap="butt" stroke-miterlimit="1.41421"/><mask id="_mask_1IXx6HqeyS7ZhWAYOUA3xLfLVp7mAUrL" x="-200%" y="-200%" width="400%" height="400%"><rect x="-200%" y="-200%" width="400%" height="400%" style="fill:white;"/><path d=" M 33.08 37.23 C 32.735 37.23 32.487 37.153 32.338 36.999 C 32.189 36.845 32.114 36.553 32.114 36.124 C 32.114 35.835 32.144 35.464 32.205 35.011 C 32.266 34.558 32.366 33.935 32.506 33.142 C 32.749 31.677 32.94 30.407 33.08 29.334 C 33.164 28.662 33.206 28.102 33.206 27.654 C 33.206 27.234 33.052 27.024 32.744 27.024 C 32.501 27.024 32.21 27.148 31.869 27.395 C 31.528 27.642 31.153 28.037 30.742 28.578 C 30.611 28.755 30.467 28.844 30.308 28.844 C 30.177 28.844 30.063 28.781 29.965 28.655 C 29.867 28.529 29.818 28.387 29.818 28.228 C 29.818 28.079 29.848 27.927 29.909 27.773 C 29.97 27.619 30.07 27.444 30.21 27.248 C 30.658 26.623 31.157 26.14 31.708 25.799 C 32.259 25.458 32.809 25.288 33.36 25.288 C 33.873 25.288 34.268 25.451 34.543 25.778 C 34.818 26.105 34.956 26.581 34.956 27.206 C 34.956 27.458 34.933 27.754 34.886 28.095 C 34.839 28.436 34.797 28.713 34.76 28.928 C 34.723 29.143 34.695 29.292 34.676 29.376 C 35.208 27.855 35.805 26.793 36.468 26.191 C 37.131 25.589 37.859 25.288 38.652 25.288 C 39.259 25.288 39.737 25.503 40.087 25.932 C 40.437 26.361 40.612 26.968 40.612 27.752 C 40.612 28.06 40.57 28.443 40.486 28.9 C 40.953 27.612 41.499 26.688 42.124 26.128 C 42.749 25.568 43.468 25.288 44.28 25.288 C 44.933 25.288 45.435 25.498 45.785 25.918 C 46.135 26.338 46.31 26.926 46.31 27.682 C 46.31 28.093 46.249 28.592 46.128 29.18 L 45.274 33.184 C 45.181 33.651 45.134 34.052 45.134 34.388 C 45.134 34.78 45.225 35.074 45.407 35.27 C 45.589 35.466 45.843 35.564 46.17 35.564 C 46.478 35.564 46.779 35.461 47.073 35.256 C 47.367 35.051 47.715 34.71 48.116 34.234 C 48.228 34.103 48.354 34.038 48.494 34.038 C 48.615 34.038 48.711 34.094 48.781 34.206 C 48.851 34.318 48.886 34.472 48.886 34.668 C 48.886 35.032 48.797 35.321 48.62 35.536 C 48.135 36.124 47.654 36.553 47.178 36.824 C 46.702 37.095 46.203 37.23 45.68 37.23 C 44.887 37.23 44.266 36.994 43.818 36.523 C 43.37 36.052 43.146 35.419 43.146 34.626 C 43.146 34.075 43.258 33.277 43.482 32.232 L 44.042 29.67 C 44.061 29.586 44.093 29.437 44.14 29.222 C 44.187 29.007 44.224 28.804 44.252 28.613 C 44.28 28.422 44.294 28.233 44.294 28.046 C 44.294 27.719 44.231 27.474 44.105 27.311 C 43.979 27.148 43.799 27.066 43.566 27.066 C 43.127 27.066 42.668 27.348 42.187 27.913 C 41.706 28.478 41.249 29.413 40.815 30.72 C 40.381 32.027 40.029 33.725 39.758 35.816 C 39.693 36.376 39.578 36.752 39.415 36.943 C 39.252 37.134 38.988 37.23 38.624 37.23 C 38.307 37.23 38.076 37.155 37.931 37.006 C 37.786 36.857 37.714 36.577 37.714 36.166 C 37.714 35.783 37.765 35.282 37.868 34.661 C 37.971 34.04 38.101 33.31 38.26 32.47 C 38.689 30.211 38.904 28.755 38.904 28.102 C 38.904 27.747 38.836 27.486 38.701 27.318 C 38.566 27.15 38.363 27.066 38.092 27.066 C 37.635 27.066 37.163 27.325 36.678 27.843 C 36.193 28.361 35.719 29.28 35.257 30.601 C 34.795 31.922 34.41 33.707 34.102 35.956 C 34.037 36.432 33.941 36.763 33.815 36.95 C 33.689 37.137 33.444 37.23 33.08 37.23 Z " fill="black" stroke="none"/></mask><path d=" M 33.08 37.23 C 32.735 37.23 32.487 37.153 32.338 36.999 C 32.189 36.845 32.114 36.553 32.114 36.124 C 32.114 35.835 32.144 35.464 32.205 35.011 C 32.266 34.558 32.366 33.935 32.506 33.142 C 32.749 31.677 32.94 30.407 33.08 29.334 C 33.164 28.662 33.206 28.102 33.206 27.654 C 33.206 27.234 33.052 27.024 32.744 27.024 C 32.501 27.024 32.21 27.148 31.869 27.395 C 31.528 27.642 31.153 28.037 30.742 28.578 C 30.611 28.755 30.467 28.844 30.308 28.844 C 30.177 28.844 30.063 28.781 29.965 28.655 C 29.867 28.529 29.818 28.387 29.818 28.228 C 29.818 28.079 29.848 27.927 29.909 27.773 C 29.97 27.619 30.07 27.444 30.21 27.248 C 30.658 26.623 31.157 26.14 31.708 25.799 C 32.259 25.458 32.809 25.288 33.36 25.288 C 33.873 25.288 34.268 25.451 34.543 25.778 C 34.818 26.105 34.956 26.581 34.956 27.206 C 34.956 27.458 34.933 27.754 34.886 28.095 C 34.839 28.436 34.797 28.713 34.76 28.928 C 34.723 29.143 34.695 29.292 34.676 29.376 C 35.208 27.855 35.805 26.793 36.468 26.191 C 37.131 25.589 37.859 25.288 38.652 25.288 C 39.259 25.288 39.737 25.503 40.087 25.932 C 40.437 26.361 40.612 26.968 40.612 27.752 C 40.612 28.06 40.57 28.443 40.486 28.9 C 40.953 27.612 41.499 26.688 42.124 26.128 C 42.749 25.568 43.468 25.288 44.28 25.288 C 44.933 25.288 45.435 25.498 45.785 25.918 C 46.135 26.338 46.31 26.926 46.31 27.682 C 46.31 28.093 46.249 28.592 46.128 29.18 L 45.274 33.184 C 45.181 33.651 45.134 34.052 45.134 34.388 C 45.134 34.78 45.225 35.074 45.407 35.27 C 45.589 35.466 45.843 35.564 46.17 35.564 C 46.478 35.564 46.779 35.461 47.073 35.256 C 47.367 35.051 47.715 34.71 48.116 34.234 C 48.228 34.103 48.354 34.038 48.494 34.038 C 48.615 34.038 48.711 34.094 48.781 34.206 C 48.851 34.318 48.886 34.472 48.886 34.668 C 48.886 35.032 48.797 35.321 48.62 35.536 C 48.135 36.124 47.654 36.553 47.178 36.824 C 46.702 37.095 46.203 37.23 45.68 37.23 C 44.887 37.23 44.266 36.994 43.818 36.523 C 43.37 36.052 43.146 35.419 43.146 34.626 C 43.146 34.075 43.258 33.277 43.482 32.232 L 44.042 29.67 C 44.061 29.586 44.093 29.437 44.14 29.222 C 44.187 29.007 44.224 28.804 44.252 28.613 C 44.28 28.422 44.294 28.233 44.294 28.046 C 44.294 27.719 44.231 27.474 44.105 27.311 C 43.979 27.148 43.799 27.066 43.566 27.066 C 43.127 27.066 42.668 27.348 42.187 27.913 C 41.706 28.478 41.249 29.413 40.815 30.72 C 40.381 32.027 40.029 33.725 39.758 35.816 C 39.693 36.376 39.578 36.752 39.415 36.943 C 39.252 37.134 38.988 37.23 38.624 37.23 C 38.307 37.23 38.076 37.155 37.931 37.006 C 37.786 36.857 37.714 36.577 37.714 36.166 C 37.714 35.783 37.765 35.282 37.868 34.661 C 37.971 34.04 38.101 33.31 38.26 32.47 C 38.689 30.211 38.904 28.755 38.904 28.102 C 38.904 27.747 38.836 27.486 38.701 27.318 C 38.566 27.15 38.363 27.066 38.092 27.066 C 37.635 27.066 37.163 27.325 36.678 27.843 C 36.193 28.361 35.719 29.28 35.257 30.601 C 34.795 31.922 34.41 33.707 34.102 35.956 C 34.037 36.432 33.941 36.763 33.815 36.95 C 33.689 37.137 33.444 37.23 33.08 37.23 Z " fill="rgb(255,255,255)" mask="url(#_mask_1IXx6HqeyS7ZhWAYOUA3xLfLVp7mAUrL)" vector-effect="non-scaling-stroke" stroke-width="2" stroke="rgb(255,255,255)" stroke-linejoin="round" stroke-linecap="butt" stroke-miterlimit="1.41421"/><mask id="_mask_W2En9EcZMO8dKWRrXyjnmG15PrYeFCKd" x="-200%" y="-200%" width="400%" height="400%"><rect x="-200%" y="-200%" width="400%" height="400%" style="fill:white;"/><path d=" M 51.238 37.23 C 50.827 37.23 50.517 37.118 50.307 36.894 C 50.097 36.67 49.992 36.376 49.992 36.012 C 49.992 35.592 50.111 35.256 50.349 35.004 C 50.587 34.752 50.921 34.626 51.35 34.626 C 51.761 34.626 52.071 34.726 52.281 34.927 C 52.491 35.128 52.596 35.424 52.596 35.816 C 52.596 36.245 52.475 36.588 52.232 36.845 C 51.989 37.102 51.658 37.23 51.238 37.23 Z " fill="black" stroke="none"/></mask><path d=" M 51.238 37.23 C 50.827 37.23 50.517 37.118 50.307 36.894 C 50.097 36.67 49.992 36.376 49.992 36.012 C 49.992 35.592 50.111 35.256 50.349 35.004 C 50.587 34.752 50.921 34.626 51.35 34.626 C 51.761 34.626 52.071 34.726 52.281 34.927 C 52.491 35.128 52.596 35.424 52.596 35.816 C 52.596 36.245 52.475 36.588 52.232 36.845 C 51.989 37.102 51.658 37.23 51.238 37.23 Z " fill="rgb(255,255,255)" mask="url(#_mask_W2En9EcZMO8dKWRrXyjnmG15PrYeFCKd)" vector-effect="non-scaling-stroke" stroke-width="2" stroke="rgb(255,255,255)" stroke-linejoin="round" stroke-linecap="butt" stroke-miterlimit="1.41421"/><ellipse vector-effect="non-scaling-stroke" cx="32" cy="31" rx="28" ry="27" fill="none" stroke-width="1" stroke="rgb(255,255,255)" stroke-linejoin="round" stroke-linecap="round" stroke-miterlimit="1.5"/></g></g></svg>